<svg width="200" height="200" viewBox="0 0 200 200" fill="none" xmlns="http://www.w3.org/2000/svg">
<path d="M58.009 77.0259C58.009 77.0259 77.4731 80.2734 83.367 66.0352C89.2608 51.7969 100.592 25.8863 131.319 30.8312C162.046 35.7761 122.291 85.4901 163.036 92.8717C203.781 100.253 186.16 162.497 125.955 146.342C65.75 130.188 48.2942 167.324 17.662 147.132C-12.0489 127.544 0.0565917 73.3777 58.009 77.0259Z" fill="#E9FCFA"/>
<path d="M100.238 131.648C139.59 131.648 171.491 127.398 171.491 122.154C171.491 116.911 139.59 112.661 100.238 112.661C60.8855 112.661 28.9844 116.911 28.9844 122.154C28.9844 127.398 60.8855 131.648 100.238 131.648Z" fill="#161616"/>
<mask id="mask0_1433_61646" style="mask-type:alpha" maskUnits="userSpaceOnUse" x="38" y="85" width="64" height="46">
<path fill-rule="evenodd" clip-rule="evenodd" d="M73.0784 130.964C82.0999 130.637 86.7984 119.651 86.9113 117.216C87.1416 112.396 99.9657 85.4462 101.967 85.4324C101.967 85.4324 85.0572 85.407 74.4511 96.8285C64.255 107.808 59.5427 110.493 57.7439 99.7489C55.9451 89.0046 40.5899 99.6476 38.418 109.805C38.8786 116.521 40.8294 123.14 45.3275 128.205C45.7835 128.306 48.0452 128.677 73.0784 130.964Z" fill="white"/>
</mask>
<g mask="url(#mask0_1433_61646)">
<path d="M74.4511 96.8193C64.255 107.799 59.5427 110.484 57.7439 99.7398C55.9451 88.9955 40.5899 99.6384 38.418 109.795C38.9615 117.582 41.4858 125.238 47.6744 130.494C63.9187 144.29 86.6879 122.039 86.9113 117.216C87.1347 112.393 99.9657 85.4463 101.967 85.4324C101.958 85.4232 85.0572 85.3979 74.4511 96.8193Z" fill="#52A1A4"/>
<path d="M59.2946 107.455C61.167 107.455 62.6848 105.937 62.6848 104.065C62.6848 102.193 61.167 100.675 59.2946 100.675C57.4222 100.675 55.9043 102.193 55.9043 104.065C55.9043 105.937 57.4222 107.455 59.2946 107.455Z" fill="#52A1A4"/>
<path d="M71.0521 130.863C74.1867 119.425 78.261 111.2 82.2133 105.346C80.5089 106.778 75.67 111.104 69.8314 122.159C63.9929 133.214 54.2988 129.416 54.2988 129.416C54.2988 129.416 67.5283 136.16 71.0521 130.863Z" fill="#161616"/>
<path opacity="0.45" d="M71.3652 100.051C71.3652 100.051 62.2262 113.545 54.499 110.975C56.1803 110.145 63.1313 105.64 62.1133 97.7451C61.0953 89.8498 71.3652 100.051 71.3652 100.051Z" fill="#488892"/>
</g>
<path d="M34.2588 85.1537C34.2588 85.1537 39.738 54.2429 44.6092 55.0305C45.9912 55.6524 45.1528 58.863 45.1528 58.863C45.1528 58.863 48.8609 46.5802 51.0374 46.9165C52.5206 47.255 51.3829 53.6786 51.3829 53.6786C51.3829 53.6786 55.4342 40.9443 58.5043 41.3958C60.8766 41.8564 57.3159 53.5657 57.3159 53.5657C57.3159 53.5657 60.9272 46.0159 63.6956 45.9031C66.4641 45.7902 59.3449 65.8508 59.2943 66.6316C62.4588 62.5182 65.833 61.4472 68.5899 62.7439C71.3468 64.0406 63.2005 70.3443 63.3248 80.8007C58.7024 81.6852 34.2588 85.1537 34.2588 85.1537H34.2588Z" fill="#F7BD2D"/>
<path opacity="0.63" d="M45.1527 58.863C45.1527 58.8215 45.1711 58.7847 45.1803 58.7432C45.3162 58.1605 45.8344 55.581 44.6091 55.0305H44.5446C44.3396 57.5133 43.4714 60.4568 42.8173 62.1842C41.7647 64.948 42.5317 67.0208 42.8173 67.979C42.8173 67.9859 44.2521 62.3108 45.1527 58.863Z" fill="#F48D2F"/>
<path opacity="0.63" d="M59.2949 66.6384C59.6381 66.2538 59.9628 65.8646 60.2692 65.4753C59.9444 65.8323 59.6174 66.2193 59.2949 66.6384Z" fill="#F48D2F"/>
<path opacity="0.63" d="M56.3164 73.3868C57.1317 69.6257 59.2944 66.6385 59.2944 66.6385C59.3405 65.8946 65.688 47.9828 64.0689 46.0688C63.7695 47.5912 63.0716 49.6871 61.6183 52.5385C57.5394 60.5512 56.427 72.9192 56.3164 73.3868Z" fill="#F48D2F"/>
<path opacity="0.63" d="M49.0841 65.5675C49.1049 65.3648 49.1279 65.1598 49.1532 64.9502C49.7474 60.0998 51.3827 53.6785 51.3827 53.6785C51.3827 53.6785 52.5205 47.255 51.0372 46.9164C51.0043 46.913 50.9711 46.913 50.9382 46.9164C50.777 48.5586 49.9363 53.8006 48.635 59.1232C47.1425 65.298 48.688 66.0627 49.0841 65.5675Z" fill="#F48D2F"/>
<path opacity="0.63" d="M61.0265 73.3869C58.7233 81.9086 43.0801 69.9828 34.3097 84.9304L34.2705 85.1607C34.2705 85.1607 58.7141 81.6921 63.3365 80.8146C63.2145 70.5494 71.0568 64.2893 68.7352 62.8499C66.5909 64.1051 62.7032 67.1844 61.0265 73.3869Z" fill="#F48D2F"/>
<path opacity="0.63" d="M57.3156 53.5657C57.3156 53.5657 60.8763 41.8472 58.5041 41.3958H58.4787C52.4214 60.1804 54.5633 61.2307 54.4988 62.9097C55.2446 59.74 56.1853 56.6194 57.3156 53.5657Z" fill="#F48D2F"/>
<path d="M49.176 86.1636C57.2021 85.1098 63.5371 82.9489 63.3255 81.3371C63.1138 79.7253 56.4358 79.2729 48.4096 80.3268C40.3834 81.3806 34.0485 83.5415 34.2601 85.1533C34.4718 86.7651 41.1498 87.2174 49.176 86.1636Z" fill="#161616"/>
<path d="M56.9223 84.684C57.1227 81.5701 57.5396 80.0247 57.5396 80.0247C57.5396 80.0247 57.3623 79.9234 57.0559 79.7644C54.1634 79.7478 51.2734 79.9364 48.4075 80.3287C46.8644 80.5314 45.3835 80.7755 43.9969 81.0473C43.2668 82.3025 42.4078 84.2717 41.5809 86.7338C40.1716 90.9902 39.203 95.38 38.6904 99.8343C43.1471 95.935 52.2791 92.4756 56.9845 92.9086C56.7819 90.1715 56.7611 87.4239 56.9223 84.684Z" fill="#FC7070"/>
<path d="M109.46 161.868C109.46 161.868 104.934 167.877 103.601 167.283C102.267 166.688 97.9627 162.61 102.709 159.049C107.456 155.488 109.46 161.868 109.46 161.868Z" fill="#161616"/>
<mask id="mask1_1433_61646" style="mask-type:alpha" maskUnits="userSpaceOnUse" x="70" y="90" width="63" height="42">
<path fill-rule="evenodd" clip-rule="evenodd" d="M96.2323 91.8929C96.2323 91.8929 79.7554 98.6342 70.932 131.302C70.6809 132.24 71.2912 129.888 71.0517 130.867C77.3417 131.646 109.089 131.646 126.286 131.097C126.906 131.079 127.321 130.42 127.809 130.056C143.434 118.366 113.043 82.4959 96.2323 91.8929Z" fill="white"/>
</mask>
<g mask="url(#mask1_1433_61646)">
<path d="M96.2323 91.8929C96.2323 91.8929 79.6495 95.7162 71.0518 130.867C77.7056 131.998 112.258 132.71 128.447 130.84C147.828 128.594 113.043 82.496 96.2323 91.8929Z" fill="#52A1A4"/>
<path d="M91.5623 120.183C93.2401 120.183 94.6002 118.823 94.6002 117.145C94.6002 115.467 93.2401 114.107 91.5623 114.107C89.8845 114.107 88.5244 115.467 88.5244 117.145C88.5244 118.823 89.8845 120.183 91.5623 120.183Z" fill="#52A1A4"/>
<path d="M91.5811 136.577L89.8076 136.418C91.6801 115.781 97.1778 103.519 97.2284 103.399L98.8407 104.136C98.7946 104.254 93.4236 116.27 91.5811 136.577Z" fill="#52A1A4"/>
<path d="M125.138 131.051C126.642 125.906 123.738 119.109 119.129 113.835C119.986 114.858 123.528 130.024 111.457 133.182C114.426 134.547 125.138 131.051 125.138 131.051Z" fill="#161616"/>
</g>
<path d="M86.8677 97.7452C88.9881 97.7452 90.7071 96.0262 90.7071 93.9058C90.7071 91.7854 88.9881 90.0664 86.8677 90.0664C84.7473 90.0664 83.0283 91.7854 83.0283 93.9058C83.0283 96.0262 84.7473 97.7452 86.8677 97.7452Z" fill="#52A1A4"/>
<path d="M74.0318 110.701C76.1522 110.701 77.8712 108.982 77.8712 106.861C77.8712 104.741 76.1522 103.022 74.0318 103.022C71.9113 103.022 70.1924 104.741 70.1924 106.861C70.1924 108.982 71.9113 110.701 74.0318 110.701Z" fill="#52A1A4"/>
<path d="M57.5385 126.726C60.482 126.726 62.8681 124.34 62.8681 121.396C62.8681 118.453 60.482 116.067 57.5385 116.067C54.5951 116.067 52.209 118.453 52.209 121.396C52.209 124.34 54.5951 126.726 57.5385 126.726Z" fill="#52A1A4"/>
<path d="M45.3252 108.678C47.873 108.678 49.9384 106.613 49.9384 104.065C49.9384 101.517 47.873 99.4519 45.3252 99.4519C42.7773 99.4519 40.7119 101.517 40.7119 104.065C40.7119 106.613 42.7773 108.678 45.3252 108.678Z" fill="#52A1A4"/>
<path d="M79.1749 125.92C81.2546 125.92 82.9406 124.234 82.9406 122.154C82.9406 120.074 81.2546 118.388 79.1749 118.388C77.0951 118.388 75.4092 120.074 75.4092 122.154C75.4092 124.234 77.0951 125.92 79.1749 125.92Z" fill="#52A1A4"/>
<mask id="mask2_1433_61646" style="mask-type:alpha" maskUnits="userSpaceOnUse" x="106" y="85" width="56" height="80">
<path fill-rule="evenodd" clip-rule="evenodd" d="M161.61 132.348C160.424 92.296 117.078 85.4233 117.078 85.4233C104.293 86.5588 102.274 100.009 114.883 109.8C126.399 118.741 133.571 138.887 109.48 138.634C111.171 140.9 112.615 144.451 113.244 149.631C114.004 155.995 113.396 160.723 112.117 163.968C137.57 166.244 162.368 158.187 161.61 132.348Z" fill="white"/>
</mask>
<g mask="url(#mask2_1433_61646)">
<path d="M161.61 132.348C160.424 92.296 117.078 85.4233 117.078 85.4233C104.293 86.5588 102.274 100.009 114.883 109.8C126.399 118.741 133.571 138.887 109.48 138.634C111.171 140.9 112.615 144.451 113.244 149.631C114.004 155.995 113.396 160.723 112.117 163.968C137.57 166.244 162.368 158.187 161.61 132.348Z" fill="#52A1A4"/>
<path d="M157.862 129.227C160.264 129.227 162.21 127.28 162.21 124.879C162.21 122.477 160.264 120.531 157.862 120.531C155.461 120.531 153.514 122.477 153.514 124.879C153.514 127.28 155.461 129.227 157.862 129.227Z" fill="#52A1A4"/>
<path d="M129.533 165.866C133.445 165.866 136.616 162.695 136.616 158.784C136.616 154.872 133.445 151.702 129.533 151.702C125.622 151.702 122.451 154.872 122.451 158.784C122.451 162.695 125.622 165.866 129.533 165.866Z" fill="#52A1A4"/>
<path d="M148.604 112.172C151.754 112.172 154.307 109.619 154.307 106.47C154.307 103.32 151.754 100.767 148.604 100.767C145.455 100.767 142.901 103.32 142.901 106.47C142.901 109.619 145.455 112.172 148.604 112.172Z" fill="#52A1A4"/>
</g>
<path d="M100.604 162.257C102.358 162.621 104.124 162.94 105.902 163.215C106.705 160.498 106.952 155.896 106.337 149.705C105.301 139.232 101.27 137.959 100.743 137.848C63.0834 132.74 61.6531 154.629 66.0683 158.012C70.5203 161.423 75.1175 155.341 73.6342 152.077C81.0781 156.621 90.5948 160.17 100.604 162.257Z" fill="#FC7070"/>
<path opacity="0.5" d="M105.901 163.215C106.705 160.498 106.952 155.896 106.337 149.705C105.374 139.981 101.827 138.189 100.908 137.896C102.29 141.084 105.054 148.885 101.968 154.353C98.0131 161.373 74.8708 145.389 72.487 150.898C70.8333 154.74 69.995 158.061 68.2031 158.959C71.8375 159.514 74.8662 154.813 73.6225 152.066C81.0663 156.61 90.5831 160.159 100.593 162.246C102.354 162.617 104.123 162.94 105.901 163.215Z" fill="#EF5050"/>
<path d="M101.268 85.4233C101.268 85.4233 91.0552 89.4769 92.2414 106.313C93.7927 104.9 95.8064 104.1 97.9049 104.065C97.9049 104.065 103.34 85.7435 101.268 85.4233V85.4233Z" fill="#7DC8C4"/>
<path d="M101.267 85.4233C101.267 85.4233 99.5648 86.0982 97.6324 88.042C97.3422 91.1007 97.0313 96.8471 97.9042 103.013C98.1737 102.446 98.4685 101.762 98.7702 100.995C100.219 95.7761 102.796 85.6606 101.267 85.4233V85.4233Z" fill="#7DC8C4"/>
<path d="M97.6168 56.7926C97.6168 56.7926 93.5609 63.7643 93.068 73.8522C92.5752 83.9401 101.267 84.6311 101.267 84.6311L97.9047 104.065C97.9047 104.065 107.882 103.92 116.606 90.6861C116.865 90.288 117.014 89.8289 117.039 89.3549C117.39 83.3759 113.935 55.8529 113.935 55.8529C113.935 55.8529 101.571 51.1061 97.6168 56.7926Z" fill="#FC7070"/>
<path d="M93.0684 73.8566C94.5654 74.1007 96.659 73.7414 99.5449 72.4517C102.309 71.2218 95.5397 71.5903 96.9077 69.9182C98.2758 68.2461 99.7936 62.9188 99.7936 62.9188C100.04 62.7346 100.892 58.0246 99.2616 57.1609C98.0662 56.5367 97.6286 56.8269 97.4789 57.0273C96.7742 58.3401 93.5083 64.8581 93.0684 73.8405V73.8566Z" fill="#EA4242"/>
<mask id="mask3_1433_61646" style="mask-type:alpha" maskUnits="userSpaceOnUse" x="88" y="41" width="35" height="31">
<path fill-rule="evenodd" clip-rule="evenodd" d="M109.188 58.6719C109.188 58.6719 90.4957 58.6212 88.2708 49.9682C85.8732 40.6473 109.732 37.3008 119.424 48.1879C128.496 58.3725 115.547 69.8078 115.547 69.8078C115.547 69.8078 114.37 63.8633 113.283 65.001C111.765 66.5879 111.8 71.6802 111.157 71.6802C110.515 71.6802 110.128 58.87 109.188 58.6719Z" fill="white"/>
</mask>
<g mask="url(#mask3_1433_61646)">
<path d="M109.188 58.6719C109.188 58.6719 90.4957 58.6212 88.2708 49.9682C85.8732 40.6473 109.732 37.3008 119.424 48.1879C128.496 58.3725 115.547 69.8078 115.547 69.8078C115.547 69.8078 114.37 63.8633 113.283 65.001C111.765 66.5879 111.8 71.6802 111.157 71.6802C110.515 71.6802 110.128 58.87 109.188 58.6719Z" fill="#31417A"/>
<g opacity="0.58">
<path fill-rule="evenodd" clip-rule="evenodd" d="M109.189 58.672C109.189 58.672 116.725 58.6927 117.07 53.9965C117.416 49.3004 113.132 44.3808 101.74 40.7717" fill="#31417A"/>
<path fill-rule="evenodd" clip-rule="evenodd" d="M95.8324 41.8589C95.8324 41.8589 108.594 42.8469 111.711 49.7219C114.827 56.5969 101.372 58.2437 93.9761 55.7631C86.5806 53.2826 85.1526 45.1225 86.8823 43.7383C88.612 42.3541 101.765 42.6995 106.413 47.193C111.061 51.6865 97.2673 56.3896 87.822 48.6763C78.3767 40.963 100.876 43.7314 101.372 47.4395C101.867 51.1476 88.3471 48.3032 87.8704 46.1543C87.3936 44.0054 95.1898 44.8185 95.4363 46.3017C95.6827 47.785 89.0864 47.0272 89.4849 45.3459" fill="#31417A"/>
<path fill-rule="evenodd" clip-rule="evenodd" d="M109.873 61.3068C109.873 61.3068 119.968 61.6454 120.468 55.5627C120.967 49.48 114.929 43.4987 113.643 42.5083" fill="#31417A"/>
<path fill-rule="evenodd" clip-rule="evenodd" d="M110.158 63.8657C110.158 63.8657 122.291 63.6861 123.183 56.8525L110.158 63.8657Z" fill="#31417A"/>
<path fill-rule="evenodd" clip-rule="evenodd" d="M110.386 65.4941C110.386 65.4941 117.346 67.0326 120.858 63.8657L110.386 65.4941Z" fill="#31417A"/>
<path fill-rule="evenodd" clip-rule="evenodd" d="M110.48 67.2305C110.48 67.2305 114.688 68.4995 119.336 67.8615L110.48 67.2305Z" fill="#31417A"/>
<path fill-rule="evenodd" clip-rule="evenodd" d="M110.651 69.0754C111.324 69.6171 112.188 69.8601 113.044 69.748L110.651 69.0754Z" fill="#31417A"/>
</g>
</g>
<path d="M99.7932 62.9189C99.7932 62.9189 98.2754 68.2485 96.9073 69.9183C95.5392 71.5881 96.5296 72.5024 99.5445 72.4518" fill="#FC7070"/>
<path d="M105.377 64.0085C107.221 64.0085 108.716 63.4455 108.716 62.7509C108.716 62.0564 107.221 61.4934 105.377 61.4934C103.532 61.4934 102.037 62.0564 102.037 62.7509C102.037 63.4455 103.532 64.0085 105.377 64.0085Z" fill="white"/>
<path d="M104.18 61.5808C102.927 61.7605 102.036 62.2142 102.036 62.7508C102.036 63.2875 102.927 63.7389 104.18 63.9208C104.871 63.7389 105.376 63.2852 105.376 62.7508C105.376 62.2165 104.878 61.7674 104.18 61.5808Z" fill="#161515"/>
<path d="M95.2166 64.0085C97.061 64.0085 98.5562 63.4455 98.5562 62.7509C98.5562 62.0564 97.061 61.4934 95.2166 61.4934C93.3721 61.4934 91.877 62.0564 91.877 62.7509C91.877 63.4455 93.3721 64.0085 95.2166 64.0085Z" fill="white"/>
<path d="M94.0212 61.5808C92.7683 61.7605 91.877 62.2142 91.877 62.7508C91.877 63.2875 92.7683 63.7389 94.0212 63.9208C94.7122 63.7389 95.2166 63.2852 95.2166 62.7508C95.2166 62.2165 94.7191 61.7674 94.0212 61.5808Z" fill="#161515"/>
<path opacity="0.5" d="M51.3831 91.764C46.505 93.9174 43.322 96.1147 41.2676 97.9365C46.0674 94.8894 53.0552 92.5493 56.9844 92.9086C56.7818 90.1715 56.761 87.4239 56.9222 84.684C57.1226 81.5701 57.5395 80.0247 57.5395 80.0247C57.5395 80.0247 57.3622 79.9234 57.0558 79.7644C54.1633 79.7478 51.2733 79.9364 48.4074 80.3287C46.8643 80.5314 45.3833 80.7755 43.9968 81.0473C43.4969 81.9394 43.0545 82.8625 42.6725 83.8111C42.7992 84.0645 42.9535 84.1151 43.117 83.8848C44.1765 82.3831 62.9543 86.6578 51.3831 91.764Z" fill="#EF5050"/>
<path d="M95.7713 76.1253C95.7131 77.157 95.9902 78.1799 96.5613 79.0411C98.9013 79.154 103.303 77.8688 103.351 76.4846C103.399 75.1004 96.1513 74.2045 95.7713 76.1253Z" fill="white"/>
<path d="M97.2202 72.1961C97.2202 72.1961 99.5234 70.8142 101.299 72.3919C103.075 73.9695 105.157 75.5081 105.924 74.4647C106.691 73.4214 105.671 73.0068 105.327 73.4767C104.984 73.9465 105.058 71.7953 106.912 72.3389C109.215 73.016 107.999 81.091 97.0958 75.6278C96.4532 75.8259 93.7585 77.24 92.3743 75.8581C90.9901 74.4762 92.0289 69.7478 97.2202 72.1961Z" fill="#F98D2B"/>
<path d="M101.267 84.6309C107.619 85.3472 110.376 81.54 110.376 81.54C110.376 82.4314 108.199 90.96 99.9238 92.388L101.267 84.6309Z" fill="#161616"/>
<path d="M117.07 85.4233C117.07 85.4233 122.793 86.165 124.868 91.1099C126.943 96.0548 103.955 109.8 103.955 109.8C103.955 109.8 102.76 104.015 97.9141 104.065C102.859 101.345 113.382 92.8396 117.07 85.4233Z" fill="#7DC8C4"/>
<path d="M117.495 85.49C118.799 87.3648 120.635 90.9738 119.177 95.0067C117.551 99.491 108.93 106.242 104.913 109.206C109.241 106.536 126.69 95.4351 124.868 91.1005C123.133 86.9778 118.856 85.7802 117.495 85.49V85.49Z" fill="#7DC8C4"/>
<path opacity="0.45" d="M135.124 128.937C134.408 129.58 131.255 132.664 124.4 132.827C122.788 135.731 119.373 137.86 113.509 138.461C132.655 137.542 135.124 128.937 135.124 128.937V128.937Z" fill="#488892"/>
<path d="M59.6905 94.2237C59.2506 93.4406 58.2833 93.0283 56.9843 92.9086C52.2697 92.4756 43.1469 95.9349 38.6902 99.8342C38.056 100.374 37.4871 100.986 36.9951 101.658C32.9899 107.313 38.4184 109.8 38.4184 109.8C40.5903 99.643 57.7444 99.7444 57.7444 99.7444C57.7444 99.7444 62.1388 98.5744 59.6905 94.2237Z" fill="#52A1A4"/>
<path d="M42.8174 67.9857C42.8174 67.9857 44.0358 62.2577 45.1528 58.8721L42.8174 67.9857Z" fill="#F7BD2D"/>
<path d="M51.3833 53.6785C51.3833 53.6785 49.6029 60.6663 49.0801 65.5674L51.3833 53.6785Z" fill="#F7BD2D"/>
<path d="M57.3158 53.5657C56.1851 56.6224 55.2444 59.7461 54.499 62.9189L57.3158 53.5657Z" fill="#F7BD2D"/>
<path d="M40.5166 71.231C40.5166 71.231 49.3424 65.0124 56.3164 67.9766L40.5166 71.231Z" fill="#F7BD2D"/>
<path d="M59.2944 66.6384C59.2944 66.6384 57.1317 69.6326 56.3164 73.3867L59.2944 66.6384Z" fill="#F7BD2D"/>
<path d="M109.472 138.633C105.943 133.928 101.316 134.734 100.688 137.837L100.743 137.848C101.074 137.894 101.404 137.936 101.74 137.984C104.3 138.373 106.883 138.59 109.472 138.633Z" fill="#52A1A4"/>
<path d="M103.009 165.947C100.309 164.998 100.604 162.262 100.604 162.262C100.604 162.262 99.7589 166.695 104.116 168.994C106.737 170.376 110.185 168.86 112.108 163.973C110.036 163.789 107.963 163.535 105.901 163.22C105.25 165.41 104.234 166.38 103.009 165.947Z" fill="#52A1A4"/>
<path d="M113.244 149.631C112.625 144.444 111.172 140.9 109.481 138.634C106.892 138.59 104.309 138.373 101.749 137.984C101.413 137.936 101.084 137.894 100.752 137.848C101.272 137.968 105.31 139.23 106.346 149.705C106.961 155.896 106.715 160.498 105.911 163.215C107.984 163.531 110.057 163.784 112.118 163.968C113.387 160.723 113.995 155.995 113.244 149.631Z" fill="#52A1A4"/>
<path d="M130.274 123.566C133.08 123.566 135.355 121.291 135.355 118.485C135.355 115.679 133.08 113.405 130.274 113.405C127.468 113.405 125.193 115.679 125.193 118.485C125.193 121.291 127.468 123.566 130.274 123.566Z" fill="#52A1A4"/>
<path d="M147.695 142.051C150.501 142.051 152.776 139.777 152.776 136.971C152.776 134.165 150.501 131.89 147.695 131.89C144.889 131.89 142.614 134.165 142.614 136.971C142.614 139.777 144.889 142.051 147.695 142.051Z" fill="#52A1A4"/>
<path d="M131.637 104.595C133.752 104.595 135.465 102.881 135.465 100.767C135.465 98.653 133.752 96.9392 131.637 96.9392C129.523 96.9392 127.81 98.653 127.81 100.767C127.81 102.881 129.523 104.595 131.637 104.595Z" fill="#52A1A4"/>
<path d="M111.457 114.25C113.329 114.25 114.847 112.732 114.847 110.86C114.847 108.987 113.329 107.469 111.457 107.469C109.584 107.469 108.066 108.987 108.066 110.86C108.066 112.732 109.584 114.25 111.457 114.25Z" fill="#52A1A4"/>
<path d="M98.5797 128.269C100.452 128.269 101.97 126.751 101.97 124.879C101.97 123.007 100.452 121.489 98.5797 121.489C96.7073 121.489 95.1895 123.007 95.1895 124.879C95.1895 126.751 96.7073 128.269 98.5797 128.269Z" fill="#52A1A4"/>
<path d="M121.292 148.71C123.693 148.71 125.64 146.763 125.64 144.362C125.64 141.96 123.693 140.013 121.292 140.013C118.89 140.013 116.943 141.96 116.943 144.362C116.943 146.763 118.89 148.71 121.292 148.71Z" fill="#52A1A4"/>
<path d="M30.7212 142.878C38.0543 142.878 43.9989 141.595 43.9989 140.013C43.9989 138.431 38.0543 137.148 30.7212 137.148C23.388 137.148 17.4434 138.431 17.4434 140.013C17.4434 141.595 23.388 142.878 30.7212 142.878Z" fill="#161616"/>
<path opacity="0.45" d="M109.471 156.923C110.316 148.675 106.32 138.498 103.252 136.971C102.395 136.545 101.783 136.42 101.345 136.462C101.014 136.86 100.789 137.335 100.691 137.844L100.746 137.855C101.267 137.975 105.304 139.237 106.341 149.712C106.956 155.903 106.709 160.504 105.905 163.222C105.254 165.419 104.238 166.387 103.013 165.954C100.313 165.005 100.608 162.269 100.608 162.269C100.608 162.269 99.7628 166.702 104.12 169.001C106.172 170.081 108.727 169.388 110.666 166.698C106.596 166.999 108.745 163.987 109.471 156.923Z" fill="#488892"/>
<path opacity="0.45" d="M37.7568 109.411C37.9672 109.557 38.1882 109.687 38.4178 109.8C40.5897 99.643 57.7438 99.7443 57.7438 99.7443C57.7438 99.7443 62.1382 98.5789 59.69 94.2282C59.25 93.4451 58.2827 93.0329 56.9837 92.9131C56.2425 92.8567 55.4975 92.8706 54.7589 92.9545C55.8045 93.8942 56.864 95.3153 56.3158 96.9436C55.3646 99.7512 39.7721 96.4577 37.7568 109.411H37.7568Z" fill="#488892"/>
<path d="M90.619 78.364L90.0063 78.242C89.8912 78.2143 89.7645 78.2005 89.6355 78.1591L89.2325 78.0301C88.9561 77.9333 88.6521 77.8573 88.348 77.7307L87.4268 77.3023L86.5262 76.738C86.2521 76.5077 85.962 76.2981 85.7109 76.047C85.4605 75.8086 85.2295 75.5506 85.02 75.2755C84.9186 75.1396 84.815 75.0129 84.7228 74.877L84.4764 74.4648C84.3946 74.3346 84.323 74.1983 84.2622 74.0571C84.2 73.9212 84.1309 73.7945 84.0803 73.661C84.0019 73.4306 83.9259 73.2441 83.8661 73.0483C87.6594 70.729 89.6701 67.0831 88.4448 64.3262C87.0444 61.1801 81.959 60.3878 77.0832 62.5574C72.2074 64.7269 69.3906 69.0339 70.791 72.18C72.0508 75.0129 76.3047 75.9365 80.6946 74.5062L80.7084 74.5269C80.9304 74.8396 81.1679 75.141 81.4201 75.4298C81.5514 75.5818 81.7034 75.7269 81.8508 75.8789C81.9949 76.0351 82.1488 76.182 82.3114 76.3188L82.8204 76.7426C82.9978 76.8762 83.1912 76.9983 83.3778 77.1249C83.7542 77.3738 84.1483 77.5947 84.557 77.7859C84.9601 77.9771 85.3885 78.1107 85.7892 78.2604C86.2107 78.3617 86.616 78.4608 87.0053 78.5414L88.1408 78.6634C88.4977 78.6865 88.8317 78.6634 89.1449 78.6634H89.5848C89.723 78.6634 89.8543 78.6335 89.9787 78.622L90.6121 78.5391L91.1556 78.4677L90.619 78.364Z" fill="#161616"/>
<path d="M88.7471 78.3641L88.1345 78.242C88.017 78.2144 87.8903 78.2005 87.7637 78.1591L87.3606 78.0301C87.0819 77.9334 86.7802 77.8574 86.4762 77.7307L85.5549 77.3023C85.2601 77.1227 84.9584 76.9338 84.6498 76.7426C84.3734 76.5123 84.0832 76.3027 83.8322 76.0517C83.5824 75.8126 83.3514 75.5546 83.1412 75.2801C83.0422 75.1442 82.9362 75.0176 82.8441 74.8817L82.5977 74.4694C82.5168 74.3387 82.4452 74.2025 82.3835 74.0617C82.3236 73.9259 82.2522 73.7992 82.2015 73.6656C82.1232 73.4353 82.0472 73.2487 81.9896 73.053C85.7829 70.7337 87.7913 67.0877 86.566 64.3308C85.1657 61.1847 80.0803 60.3924 75.2045 62.562C70.3287 64.7316 67.5142 69.0385 68.9122 72.1847C70.1743 75.0176 74.426 75.9411 78.8158 74.5109L78.832 74.5316C79.0524 74.8448 79.2892 75.1462 79.5413 75.4344C79.6726 75.5864 79.8269 75.7315 79.972 75.8835C80.1157 76.0402 80.2696 76.1872 80.4327 76.3235L80.9394 76.7472C81.119 76.8808 81.3102 77.0029 81.4967 77.1296C81.8732 77.3784 82.2673 77.5993 82.676 77.7906C83.0813 77.9817 83.5097 78.1153 83.9082 78.265C84.3296 78.3664 84.735 78.4654 85.1265 78.546L86.2597 78.6681C86.619 78.6911 86.9506 78.6681 87.2639 78.6681H87.7038C87.842 78.6681 87.9733 78.6381 88.0976 78.6266L88.731 78.5437L89.2746 78.4723L88.7471 78.3641Z" fill="#F4F98C"/>
</svg>
