<svg width="24" height="24" viewBox="0 0 24 24" fill="none" xmlns="http://www.w3.org/2000/svg">
<path d="M14.1437 5.14293C14.1437 4.57461 13.9179 4.02956 13.5161 3.6277C13.1142 3.22583 12.5692 3.00007 12.0008 3.00007C11.4325 3.00007 10.8875 3.22583 10.4856 3.6277C10.0837 4.02956 9.85798 4.57461 9.85798 5.14293H14.1437ZM8.57227 5.14293C8.57227 4.23361 8.93349 3.36154 9.57647 2.71856C10.2195 2.07558 11.0915 1.71436 12.0008 1.71436C12.9102 1.71436 13.7822 2.07558 14.4252 2.71856C15.0682 3.36154 15.4294 4.23361 15.4294 5.14293H20.7866C20.957 5.14293 21.1206 5.21066 21.2411 5.33122C21.3617 5.45177 21.4294 5.61529 21.4294 5.78578C21.4294 5.95628 21.3617 6.11979 21.2411 6.24035C21.1206 6.36091 20.957 6.42864 20.7866 6.42864H19.6637L19.2283 11.6529C18.8236 11.4808 18.4022 11.3509 17.9708 11.2655L18.3737 6.42864H5.62798L6.66255 18.8384C6.71157 19.4276 6.98023 19.9768 7.41525 20.3772C7.85027 20.7777 8.41988 21 9.01112 21.0001H11.2766C11.5754 21.473 11.9344 21.9052 12.3446 22.2858H9.01112C8.0974 22.2857 7.21707 21.9423 6.5447 21.3236C5.87233 20.7049 5.45702 19.8561 5.38112 18.9455L4.33798 6.42864H3.21512C3.04463 6.42864 2.88111 6.36091 2.76055 6.24035C2.63999 6.11979 2.57227 5.95628 2.57227 5.78578C2.57227 5.61529 2.63999 5.45177 2.76055 5.33122C2.88111 5.21066 3.04463 5.14293 3.21512 5.14293H8.57227ZM22.2866 17.5715C22.2866 19.0491 21.6996 20.4662 20.6547 21.5111C19.6099 22.5559 18.1928 23.1429 16.7151 23.1429C15.2375 23.1429 13.8204 22.5559 12.7755 21.5111C11.7307 20.4662 11.1437 19.0491 11.1437 17.5715C11.1437 16.0939 11.7307 14.6767 12.7755 13.6319C13.8204 12.5871 15.2375 12.0001 16.7151 12.0001C18.1928 12.0001 19.6099 12.5871 20.6547 13.6319C21.6996 14.6767 22.2866 16.0939 22.2866 17.5715ZM16.7151 16.9655L14.4471 14.6966C14.3666 14.6162 14.2575 14.571 14.1437 14.571C14.0299 14.571 13.9207 14.6162 13.8403 14.6966C13.7598 14.7771 13.7146 14.8863 13.7146 15.0001C13.7146 15.1139 13.7598 15.223 13.8403 15.3035L16.1091 17.5715L13.8403 19.8395C13.7598 19.92 13.7146 20.0291 13.7146 20.1429C13.7146 20.2567 13.7598 20.3659 13.8403 20.4464C13.9207 20.5268 14.0299 20.572 14.1437 20.572C14.2575 20.572 14.3666 20.5268 14.4471 20.4464L16.7151 18.1775L18.9831 20.4464C19.0636 20.5268 19.1727 20.572 19.2866 20.572C19.4004 20.572 19.5095 20.5268 19.59 20.4464C19.6705 20.3659 19.7157 20.2567 19.7157 20.1429C19.7157 20.0291 19.6705 19.92 19.59 19.8395L17.3211 17.5715L19.59 15.3035C19.6705 15.223 19.7157 15.1139 19.7157 15.0001C19.7157 14.8863 19.6705 14.7771 19.59 14.6966C19.5095 14.6162 19.4004 14.571 19.2866 14.571C19.1727 14.571 19.0636 14.6162 18.9831 14.6966L16.7151 16.9655Z" fill="#52A1A4"/>
</svg>
