<svg width="200" height="200" viewBox="0 0 200 200" fill="none" xmlns="http://www.w3.org/2000/svg">
<path d="M108.688 61.4433C108.688 61.4433 130.594 78.2901 151.365 58.6371C172.137 38.9841 217.44 79.9757 186.184 114.041C154.928 148.105 211.263 138.374 194.979 164.018C178.695 189.662 107.192 167.938 82.8577 146.048C58.5237 124.159 24.4589 149.793 18.2814 120.967C12.104 92.1416 56.0979 104.494 51.5991 61.8192C47.1003 19.1442 87.3495 26.6291 108.688 61.4433Z" fill="#FEF4CE"/>
<path d="M76.0969 170.445C76.0969 170.445 10.596 171.464 14.5575 165.801C18.519 160.137 110.06 157.269 110.06 157.269L76.0969 170.445Z" fill="#FEF4CE"/>
<path d="M124.16 43.9026H172.729V162.012H124.16V43.9026Z" fill="#508DEF"/>
<path d="M129.053 49.1462H145.431V99.4975H129.053V49.1462Z" fill="#508DEF"/>
<path d="M129.053 104.526H145.431V154.878H129.053V104.526Z" fill="#508DEF"/>
<path d="M149.625 104.526H166.004V154.878H149.625V104.526Z" fill="#508DEF"/>
<path d="M119.403 162.001L77.5488 168.542V27.1018L119.403 43.4413V162.001Z" fill="#0B539B"/>
<path fill-rule="evenodd" clip-rule="evenodd" d="M121.43 41.0156H175.563V164.899H121.43V41.0156ZM172.729 162.012V43.9026H124.261V162.012H172.729Z" fill="#77ADFC"/>
<path opacity="0.33" d="M173.625 41.0156H121.443V164.899H154.445C153.228 160.038 142.78 163.352 138.013 150.372C131.762 133.355 150.5 118.38 140.94 90.0295C129.745 56.8593 166.429 45.5375 173.625 41.0156V41.0156Z" fill="#0F59B2"/>
<path fill-rule="evenodd" clip-rule="evenodd" d="M76.0977 170.445V24.344L79.9992 25.7829L119.529 40.3676L121.424 41.0593V164.86L118.888 165.173L79.3513 170.043L76.0977 170.445ZM118.533 43.0793L78.9961 28.5015V167.166L118.533 162.293V43.0793Z" fill="#508DEF"/>
<path d="M91.2028 67.9343C91.2028 67.9343 89.4572 57.3434 95.2704 55.0214C101.083 52.6994 100.574 67.1619 98.5655 67.9343C96.557 68.7068 91.2028 67.9343 91.2028 67.9343Z" fill="#7DC8C4"/>
<path d="M99.9443 66.6845C99.9443 66.6845 88.876 57.152 95.2702 55.0167C101.664 52.8815 115.484 62.2503 117.291 69.9358C119.099 77.6213 99.9443 66.6845 99.9443 66.6845Z" fill="#52A1A4"/>
<path d="M95.4687 105.765C95.4687 105.765 89.0514 111.566 85.2398 109.5C81.4282 107.434 89.0076 101.589 89.0076 101.589L95.4687 105.765Z" fill="#161616"/>
<path d="M110.06 94.6804C98.7007 92.1901 85.9654 97.8095 87.4365 104.649C96.9183 112.883 94.2112 125.432 79.1699 124.887V143.291C92.8369 141.527 102.837 138.91 110.069 135.831C141.253 122.515 120.715 100.461 120.715 100.461C117.754 97.3737 113.991 95.5405 110.06 94.6804Z" fill="#2F2F2F"/>
<path d="M79.1699 130.963C88.2159 130.502 94.5709 127.735 98.0597 122.731C103.363 115.122 100.135 105.244 99.992 104.826L99.1688 105.103C99.2011 105.2 102.397 115.002 97.3449 122.238C94.0198 127.002 87.9069 129.64 79.1699 130.092V130.963Z" fill="#494949"/>
<path d="M103.604 124.463C98.9143 131.42 90.484 135.4 79.1621 136.018V136.894C93.8091 136.11 100.932 129.995 104.342 124.904C108.165 119.21 108.262 113.704 108.274 113.471H107.405C107.414 113.524 107.301 118.982 103.604 124.463Z" fill="#494949"/>
<path opacity="0.65" d="M120.715 100.461L120.639 100.385C112.14 93.8709 100.276 94.7818 95.4681 96.804C87.8864 100 88.6104 105.765 88.6104 105.765C88.6104 105.765 94.5089 109.143 94.6057 119.718C94.7026 130.292 110.341 128.602 105.28 133.917C100.218 139.232 91.7672 141.241 91.6749 141.261C99.2059 139.737 105.25 137.893 110.057 135.84C141.254 122.515 120.715 100.461 120.715 100.461Z" fill="#161616"/>
<path d="M104.017 67.1367C103.574 65.9784 103.013 64.8688 102.343 63.8255C102.053 63.4773 98.5337 58.7525 101.084 58.2152C102.584 57.8859 104.153 58.2538 105.35 59.216C104.843 59.216 101.365 59.5642 103.249 61.1575C105.133 62.7509 107.992 63.1383 107.84 65.4119C107.688 67.6855 104.017 67.1367 104.017 67.1367Z" fill="#7DC8C4"/>
<mask id="mask0_1329_38489" style="mask-type:alpha" maskUnits="userSpaceOnUse" x="87" y="92" width="47" height="55">
<path fill-rule="evenodd" clip-rule="evenodd" d="M132.164 136.742C131.142 130.055 129.079 121.864 124.555 112.32C123.209 109.438 121.616 106.679 119.793 104.072C109.347 89.3538 98.1176 92.7734 98.1176 92.7734C98.1176 92.7734 87.8703 95.9601 87.4414 102.246C87.4414 102.246 92.0117 105.181 100.661 114.603C104.888 119.289 116.95 133.689 116.26 144.78C118.695 146.021 121.393 146.66 124.126 146.643C127.225 146.626 130.275 145.858 133.013 144.404C132.842 142.128 132.595 139.569 132.164 136.742Z" fill="white"/>
</mask>
<g mask="url(#mask0_1329_38489)">
<path d="M132.164 136.742C131.142 130.055 129.079 121.864 124.555 112.32C123.209 109.438 121.616 106.679 119.793 104.072C109.347 89.3538 98.1176 92.7734 98.1176 92.7734C98.1176 92.7734 87.8703 95.9601 87.4414 102.246C87.4414 102.246 92.0117 105.181 100.661 114.603C104.888 119.289 116.95 133.689 116.26 144.78C118.695 146.021 121.393 146.66 124.126 146.643C127.225 146.626 130.275 145.858 133.013 144.404C132.842 142.128 132.595 139.569 132.164 136.742Z" fill="#2F2F2F"/>
</g>
<path d="M126.382 146.496C123.071 130.708 115.636 118.521 109.934 111.038C103.662 102.809 98.0679 98.3283 98.0126 98.2822L97.4707 98.974C97.526 99.0178 103.051 103.447 109.261 111.599C114.889 118.989 122.229 131.019 125.513 146.595C125.805 146.563 126.094 146.533 126.382 146.496Z" fill="#494949"/>
<path d="M129.977 145.689C126.626 130.272 119.921 117.894 114.804 110.132C109.078 101.446 104.04 96.4974 103.989 96.449L103.383 97.0716C103.579 97.263 122.697 116.176 129.142 145.942C129.437 145.864 129.716 145.779 129.977 145.689Z" fill="#494949"/>
<path opacity="0.4" d="M124.121 146.643C127.221 146.626 130.27 145.857 133.008 144.404C132.916 143.055 122.763 148.352 121.121 139.656C119.479 130.961 111.556 118.498 102.088 108.836C94.4465 101.038 109.077 99.0291 115.001 98.5426C114.302 97.8903 113.569 97.2746 112.806 96.6979C104.221 94.5903 92.4012 96.7371 87.4735 101.863C87.4574 101.99 87.4366 102.117 87.4297 102.248C87.4297 102.248 91.9999 105.184 100.649 114.605C104.876 119.291 116.938 133.691 116.249 144.782C118.686 146.024 121.386 146.662 124.121 146.643Z" fill="#161616"/>
<path d="M115.405 79.1017C117.291 69.809 112.465 65.6584 112.462 65.6561C111.155 65.384 108.789 64.5032 108.789 64.5032C107.798 63.9844 107.892 64.3856 106.112 64.2057L106.163 64.1365C104.895 63.9674 103.62 63.8666 102.342 63.8345C102.434 63.9774 102.529 64.1342 102.626 64.2956C102.346 64.3372 102.065 64.3833 101.779 64.4409C103.105 66.2418 104.943 71.5177 101.943 74.3562C98.4841 77.626 97.1306 90.0477 102.854 98.1068C108.674 97.4427 114.512 98.6464 118.601 100.482C116.576 97.5695 112.947 90.4743 115.405 79.1017Z" fill="white"/>
<path d="M108.781 68.0427C108.781 68.0427 103.787 63.5762 105.456 67.7291C106.8 71.8451 103.973 71.9189 103.15 69.3294C102.327 66.7399 100.969 62.8729 106.173 64.1273C108.829 65.7945 108.781 68.0427 108.781 68.0427Z" fill="#C2D2F9"/>
<path d="M116.602 96.818C115.173 96.1262 113.127 95.951 109.632 94.8511C103.175 92.8242 105.61 83.347 106.226 78.2925C107.312 69.4103 104.653 65.9814 103.671 63.8877C103.267 63.8623 102.827 63.8393 102.35 63.8254C102.442 63.9684 102.536 64.1252 102.633 64.2866C102.354 64.3281 102.073 64.3742 101.787 64.4319C103.113 66.2328 104.951 71.5086 101.951 74.3472C98.492 77.6169 97.1384 90.0387 102.862 98.0978C108.682 97.4337 114.52 98.6373 118.608 100.473C117.817 99.3259 117.145 98.1013 116.602 96.818Z" fill="#C2D2F9"/>
<path d="M105.912 64.0928C105.912 64.0928 108.617 55.7916 109.908 54.8877C111.199 53.9838 114.043 55.621 114.289 57.5141C114.536 59.4072 115.108 63.6708 111.319 64.4456C111.361 67.3302 112.214 70.4409 111.319 71.7829C110.425 73.1249 107.333 71.799 105.912 64.0928Z" fill="#F96353"/>
<path d="M111.086 57.1107C111.168 56.8888 111.34 56.712 111.56 56.6241C111.779 56.5363 112.026 56.5455 112.239 56.6495C113.945 57.4704 117.844 58.9439 119.175 56.0523C120.895 52.3052 116.952 48.0878 114.999 49.5958C113.046 51.1039 113.615 53.1699 110.521 52.5658C107.426 51.9616 105.628 53.7556 107.922 58.9715C108.798 58.206 109.1 56.5273 109.831 56.8294C110.562 57.1314 109.056 60.1014 109.529 60.1429C109.85 60.1706 110.636 58.2636 111.086 57.1107Z" fill="#161616"/>
<path d="M111.329 64.4455C109.602 64.7983 108.793 63.062 108.793 63.062C108.65 63.8783 109.203 66.0804 111.329 66.4401C111.38 65.58 111.329 64.4455 111.329 64.4455Z" fill="#161616"/>
<path d="M98.4251 63.8785C94.632 65.9538 90.3961 70.3349 85.9734 76.6508C75.5116 91.5675 83.3262 110.36 85.6506 109.457C89.6213 102.027 96.2276 98.8495 102.855 98.0909C97.1315 90.0387 99.7856 80.4716 102.806 76.8029C106.712 72.0574 104.051 66.5026 102.345 63.8254" fill="#52A1A4"/>
<path d="M102.686 98.1114C99.9539 94.1107 90.5575 100.904 87.0179 96.5664C81.1426 86.3791 91.7519 75.1217 97.8394 71.9535C102.232 69.6683 101.227 65.8175 100.33 63.8506L98.4251 63.8783C94.632 65.9536 90.3961 70.3347 85.9734 76.6505C75.5116 91.5673 83.3262 110.36 85.6506 109.456C89.589 102.089 96.1146 98.9023 102.686 98.1114Z" fill="#7DC8C4"/>
<path d="M145.872 83.6282L145.858 83.6444L145.872 83.6282Z" fill="#52A1A4"/>
<path d="M145.698 83.748C145.043 84.0939 143.95 83.416 142.831 82.1086C142.11 81.2471 141.485 80.31 140.966 79.3138C140.869 79.1317 140.779 78.9518 140.694 78.7743C140.662 78.7097 140.632 78.6451 140.602 78.5806C140.548 78.4699 140.497 78.3592 140.449 78.2485C140.412 78.1678 140.376 78.0848 140.341 78.0041C140.306 77.9234 140.27 77.8335 140.237 77.7481C140.205 77.6628 140.159 77.5567 140.122 77.4599C140.101 77.4092 140.085 77.3584 140.064 77.3054C139.869 76.7786 139.709 76.2394 139.585 75.6913C139.532 75.4607 139.488 75.2163 139.458 74.9995C138.969 75.3731 138.476 75.7835 137.977 76.2355C132.213 81.4883 128.164 79.2493 122.738 72.2786C119.182 67.7083 114.953 66.168 112.463 65.6492C112.463 65.6492 117.291 69.7998 115.405 79.0948C112.947 90.4674 116.577 97.5626 118.601 100.459C120.985 101.529 122.777 102.811 123.621 104.065C131.759 100.812 120.651 90.6565 118.779 86.1369C122.062 88.2722 125.016 89.3905 127.659 89.7733C137.396 91.5004 145.518 83.9487 145.857 83.6281C145.809 83.6748 145.756 83.7152 145.698 83.748Z" fill="#52A1A4"/>
<path d="M123.621 104.072C128.175 102.251 126.7 98.2684 124.191 94.3207C121.682 90.3731 126.036 97.8372 124.191 99.4997C122.346 101.162 116.471 96.5182 116.471 96.5182C117.036 97.9061 117.75 99.2283 118.601 100.461C120.983 101.536 122.777 102.818 123.621 104.072Z" fill="#7DC8C4"/>
<path d="M145.698 83.7483C145.043 84.0942 143.95 83.4162 142.832 82.1088C142.111 81.2473 141.485 80.3103 140.966 79.3141C140.869 79.1319 140.779 78.952 140.694 78.7745C140.662 78.7099 140.632 78.6454 140.602 78.5785C140.549 78.4701 140.498 78.3594 140.45 78.2487C140.401 78.1381 140.376 78.085 140.341 78.0043C140.307 77.9236 140.27 77.8337 140.238 77.7484C140.205 77.6631 140.159 77.557 140.122 77.4601C140.101 77.4094 140.085 77.3587 140.065 77.3056C139.869 76.7788 139.709 76.2396 139.585 75.6915C139.532 75.4609 139.488 75.2165 139.458 74.9998C139.368 75.0689 139.276 75.1473 139.184 75.2188C137.464 77.889 140.706 86.7482 136.647 84.8574C132.589 82.9666 128.992 85.8974 123.965 85.3186C118.938 84.7398 119.086 81.6845 118.595 79.8075C118.595 79.8075 117.384 83.7414 118.772 86.1395C122.056 88.2747 125.009 89.3931 127.652 89.7759C137.39 91.503 145.511 83.9512 145.85 83.6307C145.804 83.6761 145.753 83.7156 145.698 83.7483Z" fill="#7DC8C4"/>
<path d="M145.159 78.2925C144.868 78.8436 144.534 79.4454 144.158 80.0749C143.782 80.7044 143.323 81.417 142.832 82.1087C143.95 83.4162 145.043 84.0941 145.698 83.7482C145.756 83.7175 145.809 83.6795 145.857 83.6352L145.871 83.6191C146.579 82.9365 146.27 80.739 145.159 78.2925V78.2925Z" fill="#161616"/>
<path d="M151.154 73.7451C149.683 71.6698 146.03 71.1579 141.769 73.4915C140.963 73.9383 140.193 74.4447 139.463 75.0065C139.493 75.2255 139.537 75.4676 139.59 75.6982C139.889 76.9585 140.354 78.1735 140.973 79.3115C141.492 80.3077 142.118 81.2448 142.839 82.1063C143.33 81.4145 143.761 80.7227 144.165 80.0725C144.568 79.4222 144.875 78.8411 145.165 78.29C146.039 76.6298 146.526 75.4192 146.666 75.2601C147.312 74.5337 148.232 75.8735 148.742 75.7213C149.251 75.5691 148.096 75.1171 148.548 74.257C149 73.3969 153.047 76.4153 151.154 73.7451Z" fill="#F96353"/>
<path d="M149.135 74.1257C145.171 72.0712 144.502 76.8097 142.473 77.5845C141.09 78.1103 140.075 76.201 139.561 74.9328L139.457 75.0089C139.487 75.2279 139.531 75.47 139.584 75.7006C139.883 76.9609 140.349 78.1759 140.967 79.3139C141.486 80.3101 142.112 81.2472 142.833 82.1087C143.324 81.4169 143.755 80.7251 144.159 80.0749C144.562 79.4246 144.869 78.8435 145.159 78.2924C146.033 76.6322 146.52 75.4216 146.661 75.2625C147.306 74.5361 148.226 75.8759 148.736 75.7237C149.246 75.5715 148.09 75.1195 148.542 74.2594C148.632 74.098 148.851 74.075 149.135 74.1257Z" fill="#E53E23"/>
<path d="M104.017 67.1365C103.574 65.9782 103.013 64.8686 102.343 63.8253C101.19 63.7884 99.8617 63.7907 98.4228 63.8783C92.6189 64.2334 85.187 65.9928 82.2263 72.2856C81.1521 74.5459 80.9405 77.1207 81.6314 79.526C81.912 80.5866 82.2982 81.6163 82.7843 82.5998C84.7535 86.7504 89.7388 93.8064 101.261 95.3628C102.338 95.5081 103.468 95.6073 104.663 95.6488C104.056 95.5565 103.715 94.2168 103.706 92.2776C103.707 91.0862 103.8 89.8967 103.985 88.7196C104.282 86.7642 104.762 85.0302 105.287 83.8772C103.569 83.3963 101.814 83.06 100.039 82.8719L99.887 82.8534C90.8941 81.7005 95.2015 73.6714 99.5919 73.3693" fill="#52A1A4"/>
<path d="M104.653 95.6466C104.046 95.5543 103.705 94.2146 103.696 92.2754C103.697 91.084 103.79 89.8945 103.975 88.7174C104.272 86.762 104.752 85.028 105.277 83.8751L105.01 83.8013C101.945 83.2409 98.7449 92.5636 96.6811 87.7835C94.5551 82.8582 86.4407 86.9142 85.4746 76.3671C84.5084 65.82 98.6896 65.3888 98.6896 65.3888C98.369 64.8677 97.5574 64.3673 97.1677 63.9868C91.4514 64.4157 85.101 66.1935 82.2302 72.288C81.156 74.5483 80.9444 77.1231 81.6353 79.5285C81.9159 80.589 82.3021 81.6187 82.7882 82.6022C84.7574 86.7528 89.7427 93.8088 101.265 95.3653C102.328 95.5059 103.458 95.6051 104.653 95.6466Z" fill="#7DC8C4"/>
<path d="M105.153 92.1277C104.664 92.1899 104.177 92.2407 103.695 92.2752C103.695 94.2145 104.046 95.5542 104.652 95.6464C105.344 95.7525 106.195 94.1845 106.815 91.8533C106.259 91.9663 105.704 92.0539 105.153 92.1277Z" fill="#161616"/>
<path d="M107.596 84.6798C106.84 84.3598 106.066 84.0857 105.278 83.8589C104.752 85.028 104.273 86.7551 103.975 88.7012C103.788 89.8834 103.692 91.0784 103.689 92.2754C104.171 92.2408 104.658 92.19 105.147 92.1278C105.698 92.054 106.254 91.9664 106.809 91.8534C107.666 91.6846 108.512 91.4706 109.346 91.2123C110.729 91.3738 109.862 94.6251 111.283 94.2377C112.703 93.8503 112.187 90.4929 112.703 91.0094C113.22 91.5259 113.651 92.6881 113.651 91.828C113.655 91.1731 113.577 87.2139 107.596 84.6798Z" fill="#F96353"/>
<path d="M105.912 89.0678C104.566 89.4644 105.068 85.692 105.38 83.8957L105.278 83.8657C104.752 85.0348 104.273 86.7619 103.975 88.7081C103.788 89.888 103.693 91.0806 103.689 92.2753C104.171 92.2407 104.658 92.19 105.147 92.1277C105.698 92.0539 106.254 91.9663 106.809 91.8533C107.666 91.6845 108.512 91.4706 109.346 91.2123C110.729 91.3737 109.862 94.625 111.283 94.2376C113.093 89.5659 107.669 88.549 105.912 89.0678Z" fill="#E53E23"/>
<path d="M97.1663 63.9775C96.7051 63.6662 104.04 69.3871 101.471 74.6929C101.471 71.9789 97.7036 64.5102 90.5 67.4847C91.7521 66.2788 97.1663 63.9775 97.1663 63.9775Z" fill="#7DC8C4"/>
<path d="M134.62 156.231C133.343 154.352 133.442 150.337 133.006 144.404C130.268 145.857 127.219 146.626 124.119 146.643C126.11 150.487 127.732 154.511 128.961 158.662C129.091 158.583 129.167 158.544 129.167 158.544C129.167 158.544 133.241 158.991 134.62 156.231Z" fill="#F96353"/>
<path d="M128.954 148.931C130.504 147.974 131.511 146.251 132.118 144.852C129.611 146.015 126.884 146.626 124.121 146.643C126.112 150.487 127.734 154.511 128.963 158.662C129.093 158.583 129.169 158.544 129.169 158.544C129.169 158.544 133.25 158.991 134.629 156.238C130.921 159.667 126.056 150.73 128.954 148.931Z" fill="#E53E23"/>
<path d="M145.557 157.954C143.318 157.954 137.549 160.536 134.621 156.231C133.237 158.998 129.16 158.537 129.16 158.537C129.16 158.537 129.084 158.576 128.955 158.655C129.587 160.823 130.071 163.032 130.403 165.266C133.846 165.446 146.332 159.503 145.557 157.954Z" fill="#52A1A4"/>
<path d="M129.16 158.544C129.16 158.544 129.084 158.583 128.955 158.662C129.587 160.83 130.071 163.039 130.403 165.273C133.846 165.446 146.332 159.508 145.557 157.954C145.192 157.965 144.828 158.005 144.469 158.074C142.332 159.581 140.021 160.825 137.586 161.779C131.591 164.147 130.514 158.551 130.514 158.551C130.063 158.588 129.61 158.585 129.16 158.544Z" fill="#7DC8C4"/>
<path d="M112.923 58.997C112.949 58.8026 112.55 58.5897 112.032 58.5216C111.514 58.4534 111.074 58.5558 111.048 58.7502C111.023 58.9447 111.422 59.1575 111.939 59.2257C112.457 59.2938 112.897 59.1915 112.923 58.997Z" fill="white"/>
<path d="M112.37 58.5933C112.716 58.6901 112.949 58.8492 112.931 58.9991C112.912 59.149 112.642 59.2435 112.285 59.2481C112.096 59.172 111.974 59.0175 111.992 58.8769C112.041 58.7084 112.195 58.5926 112.37 58.5933Z" fill="#161515"/>
<path d="M115.886 59.4426C115.911 59.2481 115.513 59.0353 114.995 58.9671C114.477 58.899 114.037 59.0013 114.011 59.1958C113.986 59.3902 114.384 59.6031 114.902 59.6713C115.42 59.7394 115.86 59.637 115.886 59.4426Z" fill="white"/>
<path d="M115.333 59.0383C115.679 59.1352 115.912 59.2966 115.893 59.4465C115.875 59.5964 115.605 59.6909 115.248 59.6955C115.059 59.6171 114.937 59.4649 114.955 59.322C115.004 59.154 115.158 59.0385 115.333 59.0383Z" fill="#161515"/>
<path d="M112.262 63.0022C112.632 63.0022 112.931 62.7028 112.931 62.3335C112.931 61.9642 112.632 61.6648 112.262 61.6648C111.893 61.6648 111.594 61.9642 111.594 62.3335C111.594 62.7028 111.893 63.0022 112.262 63.0022Z" fill="#161515"/>
<path d="M134.619 156.231C133.948 155.244 133.66 153.665 133.466 151.534C130.36 154.301 127.01 153.033 127.01 153.033L126.92 152.802C127.692 154.717 128.366 156.67 128.942 158.652C129.071 158.574 129.147 158.535 129.147 158.535C129.147 158.535 133.24 158.991 134.619 156.231Z" fill="white"/>
<path d="M128.654 153.317C128.099 153.302 127.549 153.207 127.022 153.033L126.932 152.802C127.319 153.769 127.682 154.739 128.02 155.713C128.045 155.786 128.068 155.862 128.094 155.943C128.234 156.354 128.373 156.766 128.504 157.179C128.658 157.673 128.812 158.166 128.965 158.659C129.095 158.581 129.171 158.542 129.171 158.542C129.171 158.542 133.252 158.989 134.631 156.236C132.415 158.279 129.796 155.929 128.654 153.317Z" fill="#C2D2F9"/>
<rect x="167.549" y="93.3545" width="4.21976" height="14.9536" rx="2.10988" fill="white"/>
<path d="M169.658 104.386C170.003 104.386 170.283 104.106 170.283 103.761C170.283 103.416 170.003 103.136 169.658 103.136C169.313 103.136 169.033 103.416 169.033 103.761C169.033 104.106 169.313 104.386 169.658 104.386Z" fill="#161616"/>
<rect x="169.447" y="104.019" width="0.417365" height="1.30052" rx="0.208682" fill="#161616"/>
<path opacity="0.42" d="M169.691 97.6204C168.955 97.6208 168.274 98.0113 167.902 98.6465H164.007C163.62 98.6283 163.254 98.8245 163.055 99.1569C162.857 99.4894 162.857 99.9043 163.055 100.237C163.254 100.569 163.62 100.765 164.007 100.747H167.902C168.411 101.614 169.468 101.991 170.411 101.642C171.353 101.294 171.911 100.32 171.734 99.3301C171.557 98.3408 170.696 97.6204 169.691 97.6204V97.6204Z" fill="#0F59B2"/>
<path d="M169.689 96.6772C168.953 96.6777 168.272 97.0681 167.9 97.7034H164.005C163.618 97.6852 163.252 97.8814 163.053 98.2138C162.855 98.5462 162.855 98.9611 163.053 99.2936C163.252 99.626 163.618 99.8222 164.005 99.804H167.9C168.409 100.671 169.466 101.048 170.409 100.699C171.351 100.35 171.909 99.3764 171.732 98.387C171.555 97.3976 170.694 96.6773 169.689 96.6772V96.6772Z" fill="white"/>
<path opacity="0.56" d="M132.643 162.25C133.47 162.25 134.14 161.58 134.14 160.753C134.14 159.927 133.47 159.257 132.643 159.257C131.816 159.257 131.146 159.927 131.146 160.753C131.146 161.58 131.816 162.25 132.643 162.25Z" fill="white"/>
<path d="M138.66 156.969C138.66 156.969 139.864 155.913 140.316 156.508C140.768 157.103 138.66 156.969 138.66 156.969Z" fill="#E9FCFA"/>
<path d="M138.661 156.969C138.661 156.969 138.064 155.484 137.393 155.816C136.722 156.149 138.661 156.969 138.661 156.969Z" fill="#E9FCFA"/>
<path d="M111.829 166.984C111.829 166.984 136.357 165.785 146.284 167.284C154.906 168.584 129.01 167.164 128.33 169.53C127.65 171.895 101.068 169.802 111.829 166.984Z" fill="#E9FCFA"/>
<path d="M150.055 167.574C150.055 167.574 153.906 166.921 154.65 167.574C155.395 168.226 147.947 167.825 150.055 167.574Z" fill="#E9FCFA"/>
<path d="M131.073 80.4323C131.073 80.4323 134.841 80.5037 135.916 79.2793C136.99 78.0549 137.795 77.9119 138.235 78.8458C138.676 79.7797 136.568 80.4738 134.647 81.0733C132.726 81.6728 133.091 83.7481 131.062 82.5283C129.032 81.3085 129.849 80.4738 131.073 80.4323Z" fill="white"/>
<path d="M135.047 81.6636C135.047 81.6636 137.003 80.649 136.714 81.6636C136.426 82.6782 133.101 82.6782 135.047 81.6636Z" fill="white"/>
<path d="M95.2692 72.673C95.2692 72.673 91.4599 74.2871 91.4115 77.1003C91.363 79.9134 92.6682 75.3778 94.0217 74.8866C95.3753 74.3955 97.2223 73.5238 97.1439 73.0903C97.0655 72.6568 96.4337 72.0366 95.2692 72.673Z" fill="white"/>
<path d="M93.2813 76.8098C93.2813 76.8098 92.2344 78.0665 93.0069 78.2095C93.7794 78.3524 94.4112 76.3256 93.2813 76.8098Z" fill="white"/>
<path d="M169.034 52.8909C169.034 52.8909 161.934 55.7871 163.961 67.1643C165.988 78.5415 161.194 83.2593 163.595 86.1186C165.995 88.9779 169.74 79.8143 169.025 70.773C168.31 61.7316 173.662 49.5589 169.034 52.8909Z" fill="white"/>
<path d="M161.507 88.8557C161.507 88.8557 158.027 90.7604 159.766 92.6212C161.505 94.4821 164.839 89.1624 161.507 88.8557Z" fill="white"/>
<path d="M169.868 145.943C168.977 147.742 168.685 149.78 169.036 151.758C169.624 155.065 166.407 155.77 166.928 157.954C167.45 160.138 170.523 157.885 170.943 155.099C171.363 152.314 170.523 144.204 169.868 145.943Z" fill="white"/>
<path d="M162.914 157.954C162.914 157.954 161 156.785 160.673 157.954C160.346 159.123 163.161 161.028 162.914 157.954Z" fill="white"/>
<path d="M7.79646 168.542C7.79646 168.542 -2.05888 167.62 3.9318 164.899C9.92248 162.178 15.7172 168.349 7.79646 168.542Z" fill="#FEF4CE"/>
</svg>
