<svg width="25" height="24" viewBox="0 0 25 24" fill="none" xmlns="http://www.w3.org/2000/svg">
<path d="M12.5 4.36364C11.168 4.36364 10.1 5.33455 10.1 6.54545C10.1 7.75636 11.168 8.72727 12.5 8.72727C13.832 8.72727 14.9 7.75636 14.9 6.54545C14.9 5.33455 13.832 4.36364 12.5 4.36364ZM24.5 0V5.45455H22.1V3.27273H2.9V5.45455H0.5V0H2.9V2.18182H22.1V0H24.5ZM16.1 11.1927V24H13.7V18.5455H11.3V24H8.9V11.1927C6.416 10.0036 4.7 7.63636 4.7 4.90909V4.36364H7.1V4.90909C7.1 7.63636 9.5 9.81818 12.5 9.81818C15.5 9.81818 17.9 7.63636 17.9 4.90909V4.36364H20.3V4.90909C20.3 7.63636 18.584 10.0036 16.1 11.1927Z" fill="#A9A9A9"/>
</svg>
