<svg width="17" height="17" viewBox="0 0 17 17" fill="none" xmlns="http://www.w3.org/2000/svg">
<path d="M10.8917 7.87508L10.1417 8.64175C9.54167 9.24175 9.16667 9.75008 9.16667 11.0001H7.5V10.5834C7.5 9.65841 7.875 8.82508 8.475 8.22508L9.50833 7.17508C9.81667 6.87508 10 6.45841 10 6.00008C10 5.55805 9.8244 5.13413 9.51184 4.82157C9.19928 4.50901 8.77536 4.33341 8.33333 4.33341C7.89131 4.33341 7.46738 4.50901 7.15482 4.82157C6.84226 5.13413 6.66667 5.55805 6.66667 6.00008H5C5 5.11603 5.35119 4.26818 5.97631 3.64306C6.60143 3.01794 7.44928 2.66675 8.33333 2.66675C9.21739 2.66675 10.0652 3.01794 10.6904 3.64306C11.3155 4.26818 11.6667 5.11603 11.6667 6.00008C11.6655 6.70278 11.387 7.3766 10.8917 7.87508ZM9.16667 14.3334H7.5V12.6667H9.16667M8.33333 0.166748C7.23898 0.166748 6.15535 0.382296 5.1443 0.801085C4.13326 1.21987 3.2146 1.8337 2.44078 2.60752C0.877974 4.17033 0 6.28994 0 8.50008C0 10.7102 0.877974 12.8298 2.44078 14.3926C3.2146 15.1665 4.13326 15.7803 5.1443 16.1991C6.15535 16.6179 7.23898 16.8334 8.33333 16.8334C10.5435 16.8334 12.6631 15.9554 14.2259 14.3926C15.7887 12.8298 16.6667 10.7102 16.6667 8.50008C16.6667 3.89175 12.9167 0.166748 8.33333 0.166748Z" fill="#2F2F2F"/>
</svg>
