<svg width="30" height="30" viewBox="0 0 30 30" fill="none" xmlns="http://www.w3.org/2000/svg">
<rect width="30" height="30" rx="3" fill="#52A1A4"/>
<path d="M15 10.2C14.0506 10.2 13.1226 10.4815 12.3333 11.0089C11.5439 11.5364 10.9287 12.286 10.5654 13.1631C10.2021 14.0402 10.107 15.0053 10.2922 15.9364C10.4774 16.8675 10.9346 17.7228 11.6059 18.3941C12.2772 19.0654 13.1325 19.5226 14.0636 19.7078C14.9947 19.893 15.9598 19.7979 16.8369 19.4346C17.714 19.0713 18.4636 18.4561 18.9911 17.6667C19.5185 16.8774 19.8 15.9494 19.8 15C19.8 13.727 19.2943 12.5061 18.3941 11.6059C17.4939 10.7057 16.273 10.2 15 10.2ZM15 18.2C14.3671 18.2 13.7484 18.0123 13.2222 17.6607C12.6959 17.3091 12.2858 16.8093 12.0436 16.2246C11.8014 15.6399 11.738 14.9965 11.8615 14.3757C11.985 13.755 12.2897 13.1848 12.7373 12.7373C13.1848 12.2897 13.755 11.985 14.3757 11.8615C14.9965 11.738 15.6399 11.8014 16.2246 12.0436C16.8093 12.2858 17.3091 12.6959 17.6607 13.2222C18.0123 13.7484 18.2 14.3671 18.2 15C18.1974 15.8479 17.8594 16.6603 17.2598 17.2598C16.6603 17.8594 15.8479 18.1974 15 18.2ZM19.4 5H10.6C9.11479 5 7.69041 5.59 6.6402 6.6402C5.59 7.69041 5 9.11479 5 10.6V19.4C5 20.8852 5.59 22.3096 6.6402 23.3598C7.69041 24.41 9.11479 25 10.6 25H19.4C20.8852 25 22.3096 24.41 23.3598 23.3598C24.41 22.3096 25 20.8852 25 19.4V10.6C25 9.11479 24.41 7.69041 23.3598 6.6402C22.3096 5.59 20.8852 5 19.4 5ZM23.4 19.4C23.4 19.9253 23.2965 20.4454 23.0955 20.9307C22.8945 21.416 22.5999 21.857 22.2284 22.2284C21.857 22.5999 21.416 22.8945 20.9307 23.0955C20.4454 23.2965 19.9253 23.4 19.4 23.4H10.6C10.0747 23.4 9.55457 23.2965 9.06927 23.0955C8.58396 22.8945 8.14301 22.5999 7.77157 22.2284C7.40014 21.857 7.1055 21.416 6.90448 20.9307C6.70346 20.4454 6.6 19.9253 6.6 19.4V10.6C6.6 9.53913 7.02143 8.52172 7.77157 7.77157C8.52172 7.02143 9.53913 6.6 10.6 6.6H19.4C19.9253 6.6 20.4454 6.70346 20.9307 6.90448C21.416 7.1055 21.857 7.40014 22.2284 7.77157C22.5999 8.14301 22.8945 8.58396 23.0955 9.06927C23.2965 9.55457 23.4 10.0747 23.4 10.6V19.4ZM21.4 9.8C21.4 10.0373 21.3296 10.2693 21.1978 10.4667C21.0659 10.664 20.8785 10.8178 20.6592 10.9087C20.4399 10.9995 20.1987 11.0232 19.9659 10.9769C19.7331 10.9306 19.5193 10.8164 19.3515 10.6485C19.1837 10.4807 19.0694 10.2669 19.0231 10.0341C18.9768 9.80133 19.0005 9.56005 19.0913 9.34078C19.1822 9.12151 19.336 8.93409 19.5333 8.80224C19.7307 8.67038 19.9627 8.6 20.2 8.6C20.5183 8.6 20.8235 8.72643 21.0485 8.95147C21.2736 9.17652 21.4 9.48174 21.4 9.8Z" fill="white"/>
</svg>
