<svg width="24" height="24" viewBox="0 0 24 24" fill="none" xmlns="http://www.w3.org/2000/svg">
<g clip-path="url(#clip0_216_9866)">
<path d="M18.6667 20H4.00002V5.33333H12.8134L14.1467 4H4.00002C3.6464 4 3.30726 4.14048 3.05721 4.39052C2.80716 4.64057 2.66669 4.97971 2.66669 5.33333V20C2.66669 20.3536 2.80716 20.6928 3.05721 20.9428C3.30726 21.1929 3.6464 21.3333 4.00002 21.3333H18.6667C19.0203 21.3333 19.3594 21.1929 19.6095 20.9428C19.8595 20.6928 20 20.3536 20 20V10L18.6667 11.3333V20Z" fill="#52A1A4"/>
<path d="M22.3533 3.89313L20.1067 1.64647C20.007 1.54649 19.8885 1.46716 19.7581 1.41304C19.6277 1.35891 19.4879 1.33105 19.3467 1.33105C19.2055 1.33105 19.0656 1.35891 18.9352 1.41304C18.8048 1.46716 18.6864 1.54649 18.5867 1.64647L9.44666 10.8398L8.70666 14.0465C8.67513 14.2019 8.67845 14.3624 8.71636 14.5164C8.75428 14.6704 8.82586 14.8141 8.92594 14.9371C9.02603 15.0602 9.15214 15.1595 9.2952 15.228C9.43826 15.2964 9.59472 15.3324 9.75333 15.3331C9.8353 15.3422 9.91802 15.3422 9.99999 15.3331L13.2333 14.6198L22.3533 5.41313C22.4533 5.31343 22.5326 5.19497 22.5868 5.06456C22.6409 4.93414 22.6687 4.79433 22.6687 4.65313C22.6687 4.51193 22.6409 4.37212 22.5868 4.24171C22.5326 4.11129 22.4533 3.99284 22.3533 3.89313ZM12.54 13.3865L10.1 13.9265L10.6667 11.5065L17.5467 4.5798L19.4267 6.4598L12.54 13.3865ZM20.18 5.70647L18.3 3.82647L19.3333 2.77313L21.2267 4.66647L20.18 5.70647Z" fill="#52A1A4"/>
</g>
<defs>
<clipPath id="clip0_216_9866">
<rect width="24" height="24" fill="white"/>
</clipPath>
</defs>
</svg>
