<svg width="30" height="30" viewBox="0 0 30 30" fill="none" xmlns="http://www.w3.org/2000/svg">
<rect width="30" height="30" rx="3" fill="#52A1A4"/>
<path d="M10.4189 14.3572C11.7789 17.03 13.97 19.2117 16.6428 20.5811L18.7206 18.5033C18.9756 18.2483 19.3533 18.1633 19.6839 18.2767C20.7417 18.6261 21.8844 18.815 23.0556 18.815C23.575 18.815 24 19.24 24 19.7594V23.0556C24 23.575 23.575 24 23.0556 24C14.1872 24 7 16.8128 7 7.94444C7 7.425 7.425 7 7.94444 7H11.25C11.7694 7 12.1944 7.425 12.1944 7.94444C12.1944 9.125 12.3833 10.2583 12.7328 11.3161C12.8367 11.6467 12.7611 12.015 12.4967 12.2794L10.4189 14.3572Z" fill="white"/>
</svg>
